/* XPM */
static char *icon_xpm[] = {
/* width height num_colors chars_per_pixel */
"    48    48      227            2",
/* colors */
".. c #040204",
".# c #848274",
".a c #4c4220",
".b c #3c1214",
".c c #8c520c",
".d c #1c2224",
".e c #64624c",
".f c #c4c6c4",
".g c #240e0c",
".h c #644614",
".i c #b4823c",
".j c #3c2b14",
".k c #141207",
".l c #643214",
".m c #846a37",
".n c #3c3614",
".o c #a46a2c",
".p c #c4a264",
".q c #14060c",
".r c #5c5241",
".s c #64562c",
".t c #4c3618",
".u c #847254",
".v c #242219",
".w c #544228",
".x c #2c3234",
".y c #a4824c",
".z c #040a09",
".A c #747274",
".B c #0c1244",
".C c #6c625c",
".D c #242a31",
".E c #b4b2b4",
".F c #7c4e0c",
".G c #4c2a0c",
".H c #b4925c",
".I c #14162c",
".J c #3c3634",
".K c #745634",
".L c #040e20",
".M c #64462c",
".N c #946a2c",
".O c #4c3e18",
".P c #847a64",
".Q c #544a3c",
".R c #8c8e7c",
".S c #444243",
".T c #241a14",
".U c #845e2c",
".V c #a4763c",
".W c #d4a45c",
".X c #140a08",
".Y c #544a24",
".Z c #ac8e5c",
".0 c #0c0a09",
".1 c #746e54",
".2 c #e4e2e4",
".3 c #342414",
".4 c #342a18",
".5 c #cc9a4c",
".6 c #74663c",
".7 c #644e24",
".8 c #3c3223",
".9 c #1c1206",
"#. c #543814",
"## c #646a6c",
"#a c #3c3e3c",
"#b c #745e44",
"#c c #946c34",
"#d c #948261",
"#e c #5c5e5c",
"#f c #242624",
"#g c #c4b69c",
"#h c #54322c",
"#i c #9c5e1c",
"#j c #d4ae74",
"#k c #140a1c",
"#l c #0c0204",
"#m c #d4d2d4",
"#n c #443620",
"#o c #545654",
"#p c #645744",
"#q c #aca69c",
"#r c #4c3824",
"#s c #5c421c",
"#t c #4c320f",
"#u c #745e34",
"#v c #847a6f",
"#w c #b47631",
"#x c #9c8e74",
"#y c #0c0b14",
"#z c #3c260c",
"#A c #6c4a24",
"#B c #b48e4c",
"#C c #141314",
"#D c #5c3a0c",
"#E c #8c6a34",
"#F c #84726c",
"#G c #2c2214",
"#H c #646664",
"#I c #c49850",
"#J c #44382c",
"#K c #7c5729",
"#L c #645238",
"#M c #4c3e2c",
"#N c #94723c",
"#O c #c4beac",
"#P c #a4967c",
"#Q c #cccecc",
"#R c #24160c",
"#S c #442e11",
"#T c #ac722c",
"#U c #a4a2a4",
"#V c #4c3a18",
"#W c #84765c",
"#X c #343a44",
"#Y c #040d14",
"#Z c #fcfefc",
"#0 c #042664",
"#1 c #cca66c",
"#2 c #9c8a6c",
"#3 c #7c4a2c",
"#4 c #bcbebc",
"#5 c #eceeec",
"#6 c #d4c6b4",
"#7 c #bca684",
"#8 c #6c3a1c",
"#9 c #949694",
"a. c #946634",
"a# c #1c1244",
"aa c #4c2614",
"ab c #1c1e1d",
"ac c #7c868c",
"ad c #845224",
"ae c #7c7a7c",
"af c #846634",
"ag c #dcb67c",
"ah c #dcdadc",
"ai c #645e4c",
"aj c #bc7e2c",
"ak c #745224",
"al c #5c322c",
"am c #d4aa6c",
"an c #341624",
"ao c #ccc2b4",
"ap c #1c1a1c",
"aq c #9c6a1c",
"ar c #a4927c",
"as c #34322a",
"at c #948e84",
"au c #6c6a5c",
"av c #443e30",
"aw c #6c5230",
"ax c #1c0414",
"ay c #ac9e7c",
"az c #8c714c",
"aA c #14143c",
"aB c #542e0c",
"aC c #8c7b5e",
"aD c #5c4b29",
"aE c #dcb274",
"aF c #bc8a44",
"aG c #9c7644",
"aH c #441614",
"aI c #6c634c",
"aJ c #846e44",
"aK c #8c622c",
"aL c #342e24",
"aM c #6c5124",
"aN c #94866c",
"aO c #6c5a44",
"aP c #acaaac",
"aQ c #9c9284",
"aR c #44220c",
"aS c #8c6e44",
"aT c #9c6e2c",
"aU c #6c5624",
"aV c #bc9258",
"aW c #0c0e20",
"aX c #543e1c",
"aY c #7c6638",
"aZ c #7c5e3c",
"a0 c #5c5650",
"a1 c #543e24",
"a2 c #7c6644",
"a3 c #848684",
"a4 c #8c662c",
"a5 c #4c422c",
"a6 c #3c3624",
"a7 c #8c8e8c",
"a8 c #1c1a14",
"a9 c #7c6e54",
"b. c #4c4a4c",
"b# c #443224",
"ba c #6c6a6c",
"bb c #040606",
"bc c #241204",
"bd c #644a1c",
"be c #b48644",
"bf c #14160c",
"bg c #5c5644",
"bh c #a48654",
"bi c #6c6658",
"bj c #4c2e09",
"bk c #3c3a3c",
"bl c #745a2c",
"bm c #544e44",
"bn c #444640",
"bo c #241e10",
"bp c #140e06",
"bq c #0c0e0a",
"br c #cc9e50",
"bs c #1c1604",
"bt c #341214",
"bu c #c4baa4",
"bv c #9c6224",
"bw c #d4b27c",
"bx c #0c0606",
"by c #443a21",
"bz c #5c4621",
"bA c #0c1e54",
"bB c #2c2e2d",
"bC c #847e74",
"bD c #4c4644",
"bE c #b47a34",
"bF c #9c927c",
"bG c #2c2619",
/* pixels */
"................................................................................................",
"..............................#fas#Xbq..........................................................",
".....................v#eae#o.v#Hba#Has.........................v.4b##Lbmbn......................",
"..................bB#Ha3aP#9.faeb.#9as.........................Q#raO#FaibC......................",
"..................#Hae#CbBbBba.z#e.A#f........................#W#rbnacaO#O......................",
"..................#Ubaa3#o.A.Ab.as#H#f........................#d.r.D##aNbu......................",
"..................aPa7a7aPae.AaP#4a7.J........................#2aIbq#H#P#6......................",
"..................aPa7#o#X#o#o#o...f#o........................ara9..#X#x#q......................",
"..................baa7.2#Z#Z#Zaha7.Eb.........................bFaObo#HaC#H......................",
"..................bk#o#oap#C#a#Ub..Eb.........................aQ#p.Db#.1ab......................",
".......................vba#4ah.E#H#4b.........................at#MbBav.C........................",
"...................v.A.E.E#9.S.v##aP#a........................at#J.xby.e........................",
"..................#e#UaP#obB#o.A#H#Has.........................R.8.x.8ai........................",
"..................#9#4b.#a.Sb..A#e#HbB........................at#J.x#nai........................",
"..................a3.A.E.E#Ub.abbaaP.S.........................R#n.D#Jai........................",
"..................b.#o##.AaP#QaP#e#4b..........................##J.D#J#p........................",
"..................asbnaea7#obqa7#U.A.x.........................#.8.D.8bg........................",
"..................#e#Ha3#e#obkasab#Xap........................bC.8.D.8.r........................",
"..................#9a3.Sae#ebkb.#o#o#f........................aeb#.Db#.r........................",
"..................aP#U#e#U#Q#5#5aP#U.S........................#v#J.d#nbg........................",
"..................aPa7#o#X....ba...f#o........................#W#M.d#M#p........................",
"..................#U#U#e#U#Q#5#5aP#U#a.....................z.0bi#Mapbk#pbn......................",
"..................#9a3.Sae#e.Jb.#o#o#f...................SaC#j#K#GabbD.mbwaCav..................",
"..................#e#Ha3#e#o#Xbqapapbb................avaz.p#I.U.tbx#dbj.NaEaC#J................",
"...................v#e#9#9#ebG#fbk#X.k.................u#j.t.L#b#cbb#N.m.L#Vagaz................",
"..............................#e#o#ebB................#1br#ybfafak#yaka4.v.0#camav..............",
"................asa7a7a7baaPaP#9baaPb..................5.W...8af.ha8a1aZ.aa8#h.W.P..............",
"................b..Ab..A.Aa7#o.A.v.f#o.................5br.k.s#Eb#as.8#AaYbG.B.W#g..............",
"................b.a7a7.A#oa7aPa3b..f#o................aVbra8.6af#S.0#z#saJa6.B#I#g..............",
"................#CbBbBa7baa7#o.A#ea7.S..............bB#BaT#Y#uaf.3#n.3aXaJ.dbAaV#O..............",
"......................#o#o#o..b.#o#o.v..............aubhalax.a.7bdbzaDbzaDbf#0.Uao#f............",
"......................ap.J#o#o#H#e#o#f..............ay.ya#.gbo#naMaUbl.O.4bpbAa4bu#f............",
".......................Aa7.f.E#maP#9bB..............aybeaA.q...k.j#V.j.9bb.0aA#3#7av............",
"......................#U#o#o#oa7ap.2.S.............J.Z.FaWbx....bb.Lbb#Y.0bb#k#8aV#o............",
"......................a7a7.f.E#U#o#m.S.............6.iaa.0bb....#l#y.0.z....#lanaF#d............",
".......................A#X.AaP#9bB#Qas............bhaj.IbqbG.YblbdaXbz.7bz.4.XaWaq.H.v..........",
"......................a7.Aa7#o.JbBat.D..........bb.V#w.Xbx#S.n.O#V#t#V.w#n#nbq.0aqbe#f..........",
"......................#q#oa7aP#4a7#obb..........bb.o#w.9#l.n#..haBaR#SaX.O.nbp.0.l.ia0..........",
"......................aP#Xa7#o.S#fbx............bbaT#T.9...9#z#tbj.Gbj#t#S#R..bq.cbEaL..........",
"......................aPbaaPaPaPaPa3b.bq..........aG#Tax.0bbbb...0.0bxbbbb.zbb.qad.Vas..........",
"......................#Q.Aaea3#U#U#Qa3#H.0........#L.o.G.Xbxbb..bbbbbbbbbbbb.0bj#waw............",
"......................#5.A#9#Uaeb.#f#oaP#f.........4aM#KaBbc.9bqbq.z.zbpbsbc#DaK.KaL............",
"......................#5#a#mae#4#o.Sap#Q.S..........#G.Mad.l.b.g.bbtbtaH#8#ibv#Aby..............",
"......................ahb.#4#9#U#C#Haeaeas............#Gbza..o#w#w#w#w#T.o#cbzbG.k..............",
"......................a3ba.xae#fb.a7#H#oab..............a8.wa2aSaSaSaSa2a5.T#C.9bf..............",
"......................bB.Aa7#9a7.A#X............................................................",
"........................#f#ea3#e.v..............................................................",
"................................................................................................"
};
